<svg id="svg" version="1.1" width="400" height="400" viewBox="0 0 400 400" xmlns="http://www.w3.org/2000/svg" xmlns:xlink="http://www.w3.org/1999/xlink"><g id="svgg"><path id="path0" d="M75.891 81.200 C 75.331 81.640,74.622 82.000,74.315 82.000 C 74.007 82.000,73.145 82.450,72.400 83.000 C 71.655 83.550,70.855 84.004,70.622 84.008 C 70.390 84.013,69.660 84.654,69.000 85.432 C 68.340 86.211,67.485 87.147,67.100 87.513 C 66.715 87.879,66.400 88.384,66.400 88.635 C 66.400 88.886,65.995 89.605,65.500 90.233 C 63.903 92.257,63.519 95.656,63.251 110.136 C 62.965 125.540,63.208 127.262,65.738 127.768 C 66.377 127.895,126.165 128.000,198.601 128.000 C 320.617 128.000,330.342 128.049,330.851 128.661 C 331.663 129.640,332.066 275.034,331.266 278.542 C 330.569 281.599,329.112 283.606,326.400 285.247 L 324.200 286.577 315.534 286.789 L 306.869 287.000 305.634 288.555 C 304.006 290.607,304.015 292.077,305.669 293.731 L 306.938 295.000 313.169 295.130 C 321.414 295.302,327.736 294.763,328.804 293.797 C 331.133 291.688,332.376 295.542,331.174 301.146 C 330.716 303.282,326.797 308.000,325.481 308.000 C 325.132 308.000,324.234 308.361,323.487 308.802 C 321.491 309.979,81.413 309.879,80.110 308.700 C 79.685 308.315,78.959 308.000,78.497 308.000 C 75.928 308.000,72.774 303.188,72.253 298.471 C 71.725 293.696,72.952 291.765,75.213 293.812 C 76.634 295.097,82.102 295.165,185.400 295.173 C 284.239 295.181,291.455 295.105,292.515 294.045 C 293.525 293.035,293.342 289.430,292.212 288.087 L 291.139 286.812 185.202 286.706 L 79.264 286.600 78.306 285.700 C 77.780 285.205,77.208 284.800,77.037 284.800 C 75.527 284.800,72.841 280.908,72.371 278.036 C 72.160 276.747,72.004 247.750,72.002 209.561 C 72.000 136.475,72.181 141.548,69.519 140.220 C 67.957 139.440,67.241 139.441,65.668 140.226 C 63.002 141.556,63.181 135.326,63.320 221.810 C 63.453 305.243,63.438 304.590,65.293 306.703 C 65.630 307.086,66.025 307.794,66.172 308.275 C 66.664 309.892,73.232 316.000,74.479 316.000 C 74.782 316.000,75.744 316.405,76.615 316.900 L 78.200 317.800 202.058 317.800 C 317.257 317.800,325.968 317.753,326.658 317.131 C 327.066 316.763,327.940 316.330,328.600 316.169 C 329.260 316.008,330.250 315.534,330.800 315.116 C 331.350 314.699,332.487 313.837,333.327 313.201 C 334.747 312.126,337.600 308.778,337.600 308.187 C 337.600 308.044,337.960 307.469,338.400 306.909 C 338.840 306.350,339.200 305.462,339.200 304.936 C 339.200 304.410,339.560 302.956,340.000 301.704 C 341.078 298.636,341.285 98.097,340.211 96.022 C 339.888 95.396,339.504 94.100,339.359 93.142 C 339.215 92.184,338.780 91.040,338.394 90.600 C 338.008 90.160,337.571 89.401,337.424 88.914 C 336.894 87.167,333.323 84.017,329.803 82.190 L 326.352 80.400 201.630 80.400 C 77.514 80.400,76.903 80.404,75.891 81.200 M325.000 89.416 C 325.660 89.865,326.552 90.420,326.983 90.649 C 328.665 91.544,330.918 94.746,331.239 96.697 C 331.983 101.219,331.662 118.739,330.826 119.186 C 329.387 119.956,73.401 119.744,72.629 118.971 C 71.092 117.435,71.947 95.272,73.588 94.124 C 74.035 93.811,74.400 93.360,74.400 93.123 C 74.400 91.973,78.608 89.203,81.000 88.779 C 81.880 88.623,136.870 88.519,203.200 88.547 L 323.800 88.600 325.000 89.416 M251.432 100.232 C 247.783 103.880,251.140 109.184,256.200 107.765 C 258.573 107.099,260.104 102.466,258.469 100.900 C 255.160 97.733,254.037 97.627,251.432 100.232 M274.765 99.042 C 274.473 99.395,273.820 99.840,273.316 100.032 C 271.791 100.612,271.962 105.224,273.569 106.831 C 275.262 108.523,278.155 108.517,279.782 106.818 C 281.509 105.016,281.248 99.600,279.435 99.600 C 279.140 99.600,278.674 99.330,278.400 99.000 C 277.741 98.206,275.437 98.232,274.765 99.042 M297.400 98.823 C 297.180 99.033,296.557 99.543,296.015 99.955 C 294.454 101.144,294.546 105.071,296.175 106.773 C 299.662 110.415,306.003 105.199,303.285 100.924 C 302.175 99.179,298.427 97.840,297.400 98.823 M97.729 99.478 C 94.805 100.048,94.164 103.606,96.528 106.144 L 98.256 108.000 105.981 108.000 C 115.752 108.000,117.187 107.436,117.188 103.600 C 117.189 100.745,116.895 100.155,115.221 99.654 C 113.788 99.224,99.757 99.084,97.729 99.478 M138.400 99.634 C 135.314 100.780,135.395 105.219,138.538 107.161 C 140.237 108.212,154.677 108.466,155.680 107.463 C 155.975 107.168,156.625 106.707,157.125 106.440 C 157.959 105.994,158.024 105.718,157.917 103.111 L 157.800 100.269 156.400 99.765 C 154.731 99.164,139.956 99.057,138.400 99.634 M110.911 146.500 C 110.698 146.775,110.399 147.270,110.246 147.600 C 110.094 147.930,109.751 148.572,109.484 149.026 C 109.115 149.655,109.025 156.284,109.106 176.876 L 109.211 203.900 110.839 205.750 C 112.728 207.896,114.045 208.141,115.760 206.668 C 118.087 204.669,118.000 205.822,118.002 176.854 C 118.004 147.021,117.981 146.736,115.484 146.237 C 113.517 145.843,111.321 145.970,110.911 146.500 M170.432 146.350 C 167.137 147.272,167.501 168.169,170.843 169.894 C 172.590 170.796,173.641 170.500,175.469 168.593 L 177.200 166.786 177.200 158.155 C 177.200 150.430,177.123 149.412,176.465 148.462 C 176.061 147.878,175.617 147.085,175.478 146.700 C 175.211 145.961,172.497 145.773,170.432 146.350 M229.232 146.350 C 227.361 146.873,227.263 147.953,227.230 168.474 C 227.198 188.622,227.238 189.098,229.086 190.700 C 230.732 192.126,232.224 191.882,234.253 189.853 L 236.000 188.105 236.000 168.707 C 236.000 149.914,235.975 149.276,235.200 148.291 C 234.760 147.731,234.400 147.096,234.400 146.880 C 234.400 146.038,231.437 145.734,229.232 146.350 M288.000 146.356 C 285.678 146.999,285.225 156.130,287.403 158.403 C 289.774 160.878,293.959 159.314,294.644 155.697 C 295.928 148.910,293.107 144.944,288.000 146.356 M274.378 172.674 C 270.055 173.175,268.012 177.542,268.053 186.200 C 268.102 196.896,270.837 199.999,280.211 200.000 C 283.194 200.000,284.450 200.160,285.111 200.623 L 286.000 201.245 286.040 233.523 C 286.062 251.275,286.202 266.237,286.351 266.772 C 286.889 268.696,289.886 269.738,291.865 268.687 C 295.043 267.000,294.800 269.915,294.800 233.426 C 294.800 208.708,294.915 200.845,295.280 200.480 C 295.593 200.167,297.243 200.000,300.034 200.000 C 303.048 200.000,304.646 199.824,305.454 199.402 C 306.084 199.074,306.882 198.804,307.227 198.802 C 308.089 198.799,310.800 196.326,310.800 195.544 C 310.800 195.194,311.160 194.450,311.600 193.891 C 312.327 192.967,312.400 192.268,312.400 186.231 C 312.400 178.607,311.786 176.770,308.299 173.966 L 306.600 172.600 291.200 172.555 C 282.730 172.530,275.160 172.584,274.378 172.674 M303.339 181.549 C 304.306 182.352,304.306 189.648,303.339 190.451 C 302.631 191.040,300.944 191.084,286.129 190.900 C 276.327 190.779,276.800 191.032,276.800 185.903 C 276.800 180.349,275.755 180.734,290.420 180.879 C 300.084 180.974,302.818 181.116,303.339 181.549 M157.454 183.220 C 152.243 184.094,150.217 187.837,150.213 196.600 C 150.209 204.978,151.805 208.476,156.160 209.640 C 157.062 209.881,157.980 210.224,158.200 210.402 C 158.420 210.580,160.508 210.787,162.840 210.863 C 169.074 211.065,168.400 207.677,168.400 238.789 C 168.400 256.984,168.538 265.878,168.835 266.728 C 169.909 269.811,174.070 269.867,176.315 266.829 L 177.200 265.632 177.200 238.845 C 177.200 207.669,176.654 210.800,182.088 210.800 C 187.293 210.800,193.148 208.390,193.213 206.222 C 193.219 205.990,193.668 204.900,194.209 203.800 C 195.780 200.606,195.684 192.595,194.032 189.083 C 192.348 185.504,190.389 183.769,187.427 183.231 C 184.669 182.730,160.427 182.722,157.454 183.220 M185.269 192.262 C 186.292 193.188,186.345 199.756,185.338 200.869 C 184.392 201.914,161.547 201.999,160.068 200.962 C 159.093 200.280,159.119 193.335,160.101 192.100 C 160.782 191.242,184.309 191.394,185.269 192.262 M215.759 204.563 C 213.036 205.224,210.535 207.510,209.937 209.884 C 209.698 210.835,209.344 211.711,209.151 211.830 C 208.958 211.950,208.800 214.636,208.800 217.800 C 208.800 220.964,208.958 223.650,209.151 223.770 C 209.344 223.889,209.698 224.765,209.937 225.716 C 210.920 229.621,214.793 231.587,221.518 231.595 C 224.929 231.600,225.317 231.681,226.218 232.582 L 227.200 233.564 227.200 249.522 C 227.200 266.847,227.281 267.583,229.296 268.588 C 231.421 269.648,233.494 269.021,235.115 266.829 C 235.994 265.640,236.000 265.528,236.000 249.278 C 236.000 229.981,235.545 231.600,240.974 231.600 C 247.247 231.600,251.439 229.774,252.209 226.705 C 252.357 226.115,252.731 225.423,253.039 225.167 C 253.737 224.588,253.871 211.015,253.183 210.590 C 252.954 210.448,252.502 209.670,252.178 208.862 C 251.379 206.866,249.132 205.174,246.437 204.539 C 243.401 203.825,218.723 203.844,215.759 204.563 M244.034 213.418 L 245.229 214.035 245.114 217.907 C 245.006 221.583,244.949 221.804,244.000 222.283 C 242.728 222.926,220.624 223.017,218.966 222.387 L 217.881 221.974 218.126 217.945 C 218.261 215.729,218.580 213.665,218.835 213.358 C 219.555 212.490,242.345 212.544,244.034 213.418 M97.877 220.472 C 92.795 222.244,91.200 225.377,91.200 233.592 C 91.200 240.482,92.067 243.034,95.286 245.621 L 96.980 246.982 102.269 247.137 C 109.444 247.347,108.970 246.654,109.109 257.141 C 109.241 267.073,110.074 269.200,113.833 269.200 C 117.280 269.200,118.000 267.173,118.000 257.474 C 118.000 246.883,117.815 247.204,123.929 247.190 C 133.505 247.169,135.960 244.449,135.987 233.828 C 136.008 225.317,134.425 222.138,129.313 220.431 C 125.578 219.183,101.485 219.215,97.877 220.472 M126.311 229.423 C 127.714 230.405,127.659 237.281,126.241 238.210 C 125.020 239.010,102.702 239.029,101.127 238.231 C 100.105 237.713,99.947 232.999,100.855 230.100 L 101.262 228.800 113.342 228.800 C 123.628 228.800,125.554 228.892,126.311 229.423 " stroke="none" fill="#0d0d0d" fill-rule="evenodd"></path><path id="path1" d="M0.000 200.000 L 0.000 400.000 200.000 400.000 L 400.000 400.000 400.000 200.000 L 400.000 0.000 200.000 0.000 L 0.000 0.000 0.000 200.000 M326.262 79.255 C 327.836 79.592,329.424 80.167,329.791 80.534 C 330.157 80.900,330.660 81.200,330.907 81.200 C 331.569 81.200,334.396 83.218,335.670 84.600 C 336.279 85.260,337.078 86.109,337.445 86.488 C 338.237 87.302,338.948 88.483,339.802 90.400 C 340.145 91.170,340.734 92.340,341.113 93.000 C 341.758 94.126,341.800 100.630,341.800 198.600 L 341.800 303.000 340.900 304.594 C 340.405 305.471,340.000 306.493,340.000 306.866 C 340.000 307.238,339.753 307.790,339.452 308.091 C 339.150 308.392,338.627 309.170,338.288 309.820 C 337.570 311.194,334.700 314.246,333.039 315.400 C 331.247 316.645,331.146 316.702,328.600 317.885 L 326.200 319.000 204.200 319.111 C 82.311 319.222,76.710 319.166,75.243 317.839 C 74.855 317.487,74.250 317.200,73.899 317.200 C 73.548 317.200,72.727 316.750,72.073 316.200 C 71.419 315.650,70.714 315.200,70.505 315.200 C 69.944 315.200,65.200 310.031,65.200 309.420 C 65.200 309.133,64.931 308.675,64.603 308.402 C 64.274 308.130,63.819 307.163,63.591 306.253 C 63.363 305.344,62.867 304.060,62.488 303.400 C 61.843 302.276,61.800 297.132,61.800 221.906 L 61.800 141.612 63.499 139.913 C 65.966 137.446,69.137 137.395,71.581 139.781 L 73.187 141.349 73.293 209.985 L 73.400 278.620 74.300 279.764 C 74.795 280.393,75.200 281.093,75.200 281.318 C 75.200 281.828,77.589 283.995,78.172 284.014 C 78.407 284.021,79.320 284.375,80.200 284.800 C 81.769 285.558,83.859 285.573,186.481 285.586 C 263.781 285.596,291.423 285.719,292.160 286.055 C 293.405 286.622,295.246 290.336,294.914 291.609 C 294.193 294.366,293.151 295.578,290.464 296.787 C 288.711 297.575,79.767 297.149,77.800 296.352 C 74.173 294.884,73.689 294.817,73.444 295.748 C 72.336 299.955,76.329 306.428,80.536 307.243 C 82.716 307.665,320.892 307.664,323.072 307.241 C 324.470 306.971,326.200 305.946,327.708 304.496 C 328.980 303.273,329.956 300.999,330.179 298.735 C 330.540 295.076,330.467 295.034,325.779 296.200 C 320.131 297.606,309.106 297.685,306.847 296.335 C 302.972 294.020,302.161 289.951,304.993 287.034 L 306.386 285.600 314.209 285.600 C 321.242 285.600,322.190 285.519,323.600 284.800 C 324.462 284.360,325.427 284.000,325.743 284.000 C 326.059 284.000,326.873 283.325,327.552 282.500 C 328.231 281.675,329.104 280.640,329.493 280.200 C 330.192 279.410,330.886 133.685,330.205 130.900 L 329.985 130.000 198.021 130.000 C 81.253 130.000,65.988 129.931,65.457 129.400 C 65.127 129.070,64.686 128.800,64.476 128.800 C 64.266 128.800,63.579 128.125,62.947 127.300 L 61.800 125.800 61.685 112.159 C 61.553 96.496,62.122 91.939,64.539 89.268 C 64.902 88.866,65.200 88.352,65.200 88.127 C 65.200 87.901,65.650 87.231,66.200 86.638 C 66.750 86.044,67.200 85.388,67.200 85.179 C 67.200 84.971,67.449 84.800,67.754 84.800 C 68.059 84.800,68.603 84.350,68.963 83.800 C 69.324 83.250,69.884 82.800,70.209 82.800 C 70.534 82.800,70.800 82.631,70.800 82.425 C 70.800 81.705,75.823 79.617,78.588 79.189 C 80.122 78.951,81.458 78.676,81.556 78.577 C 82.133 78.000,323.526 78.669,326.262 79.255 M79.394 90.952 C 78.511 91.199,77.386 91.805,76.894 92.300 C 76.403 92.795,75.820 93.200,75.600 93.200 C 75.380 93.200,75.200 93.526,75.200 93.925 C 75.200 94.323,74.795 95.084,74.300 95.615 C 73.354 96.630,72.687 111.982,73.386 116.645 L 73.649 118.400 201.800 118.400 L 329.951 118.400 330.222 116.594 C 330.920 111.936,330.234 96.101,329.291 95.097 C 328.801 94.575,328.400 93.929,328.400 93.662 C 328.400 93.394,328.085 93.054,327.700 92.907 C 327.315 92.760,326.730 92.335,326.400 91.965 C 326.070 91.594,324.955 91.090,323.923 90.845 C 321.243 90.210,81.681 90.315,79.394 90.952 M115.742 98.000 C 116.004 98.330,116.574 98.798,117.009 99.041 C 117.444 99.283,117.856 99.855,117.924 100.312 C 117.992 100.768,118.307 101.357,118.624 101.620 C 119.819 102.611,118.748 105.982,116.597 108.003 C 115.523 109.012,104.255 109.674,99.106 109.031 C 92.639 108.223,91.631 100.146,97.679 97.603 C 99.271 96.933,115.172 97.283,115.742 98.000 M157.098 98.374 C 159.787 100.391,160.553 103.160,159.155 105.800 C 157.416 109.081,154.961 109.585,143.493 109.011 L 137.597 108.717 136.198 107.318 C 133.348 104.468,134.616 99.254,138.569 97.569 C 140.656 96.680,155.711 97.334,157.098 98.374 M258.484 98.821 C 260.830 101.120,260.896 105.361,258.623 107.813 C 257.183 109.367,251.573 109.637,250.586 108.200 C 250.284 107.760,249.713 107.072,249.318 106.672 C 248.771 106.116,248.600 105.304,248.600 103.258 C 248.600 97.760,254.636 95.050,258.484 98.821 M279.258 97.631 C 280.390 98.237,281.600 99.315,281.600 99.717 C 281.600 99.904,281.870 100.327,282.200 100.657 C 282.756 101.213,283.001 102.764,282.814 104.539 C 282.216 110.216,272.497 110.864,271.273 105.308 C 270.070 99.845,274.835 95.264,279.258 97.631 M302.714 98.475 C 304.544 99.882,305.106 101.707,304.682 104.868 C 304.102 109.191,297.538 110.840,294.606 107.400 C 289.757 101.711,296.815 93.942,302.714 98.475 M115.704 145.057 C 116.856 145.248,117.489 145.687,118.404 146.932 L 119.600 148.558 119.572 176.379 C 119.556 191.680,119.421 204.499,119.272 204.865 C 117.679 208.764,112.584 209.784,109.600 206.800 L 108.000 205.200 108.000 176.600 C 108.000 148.533,108.015 147.985,108.800 147.200 C 109.240 146.760,109.600 146.225,109.600 146.011 C 109.600 145.155,113.042 144.617,115.704 145.057 M174.753 145.051 C 175.593 145.219,176.406 145.843,177.224 146.951 L 178.442 148.600 178.321 158.459 L 178.200 168.318 176.672 169.759 C 174.341 171.956,170.341 171.928,168.229 169.700 L 166.807 168.200 166.803 158.096 C 166.800 148.485,166.839 147.959,167.600 147.307 C 168.040 146.930,168.400 146.397,168.400 146.123 C 168.400 145.165,172.155 144.531,174.753 145.051 M235.670 146.421 C 237.184 148.146,237.278 149.733,237.129 171.059 L 237.000 189.518 235.472 190.959 C 233.941 192.402,233.453 192.537,230.200 192.420 C 228.055 192.343,225.764 189.990,225.400 187.491 C 225.265 186.561,225.210 177.430,225.277 167.200 L 225.400 148.600 226.400 147.107 C 228.201 144.418,233.563 144.021,235.670 146.421 M294.465 146.473 C 295.991 148.182,296.253 157.585,294.800 158.493 C 294.360 158.768,294.000 159.212,294.000 159.481 C 294.000 160.215,290.852 160.916,288.804 160.637 C 284.352 160.031,282.203 151.861,285.245 147.107 C 286.986 144.386,292.277 144.022,294.465 146.473 M305.896 171.200 C 306.716 171.640,307.673 172.000,308.022 172.000 C 308.371 172.000,309.028 172.428,309.483 172.952 C 309.939 173.475,310.466 173.970,310.655 174.052 C 310.845 174.133,311.540 174.995,312.200 175.966 L 313.400 177.733 313.400 186.234 C 313.400 194.310,313.358 194.783,312.560 195.668 C 312.097 196.181,311.608 196.915,311.472 197.300 C 311.336 197.685,310.949 198.000,310.613 198.000 C 310.276 198.000,309.997 198.225,309.994 198.500 C 309.978 199.892,306.129 201.200,302.050 201.200 C 299.877 201.200,297.538 201.313,296.850 201.450 L 295.600 201.700 295.600 234.673 L 295.600 267.645 294.300 268.856 C 291.162 271.778,287.961 271.401,285.106 267.772 L 284.200 266.620 284.000 234.010 L 283.800 201.400 278.847 201.287 C 274.634 201.191,273.744 201.057,272.893 200.387 C 272.342 199.954,271.715 199.600,271.499 199.600 C 270.793 199.600,268.058 196.572,267.787 195.489 C 267.641 194.908,267.269 194.223,266.961 193.967 C 265.725 192.942,266.194 179.697,267.563 176.938 C 268.587 174.873,271.297 172.028,272.277 171.986 C 272.454 171.979,273.320 171.625,274.200 171.200 C 276.707 169.989,303.637 169.989,305.896 171.200 M186.335 181.162 C 187.509 181.329,188.589 181.648,188.735 181.871 C 188.881 182.094,189.452 182.387,190.004 182.522 C 194.309 183.573,196.001 187.628,195.993 196.871 L 195.985 204.600 194.885 206.200 C 191.604 210.972,189.545 212.000,183.265 212.000 L 178.400 212.000 178.400 238.974 C 178.400 267.707,178.431 267.256,176.312 269.184 C 173.940 271.341,171.069 271.272,168.511 268.997 L 167.000 267.652 166.800 239.926 L 166.600 212.200 161.341 212.000 C 157.085 211.838,155.934 211.666,155.309 211.100 C 154.885 210.715,154.339 210.400,154.097 210.400 C 153.487 210.400,151.084 208.013,150.472 206.800 C 150.195 206.250,149.708 205.350,149.390 204.800 C 148.552 203.350,148.556 189.840,149.395 188.400 C 149.715 187.850,150.209 186.927,150.492 186.349 C 151.147 185.011,154.252 182.400,155.189 182.400 C 155.581 182.400,156.118 182.139,156.383 181.821 C 157.129 180.922,180.959 180.398,186.335 181.162 M278.000 185.762 L 278.000 189.600 290.000 189.600 L 302.000 189.600 301.995 186.700 C 301.985 181.713,303.321 182.221,289.779 182.062 L 278.000 181.924 278.000 185.762 M160.572 193.329 C 160.458 193.627,160.417 195.295,160.482 197.035 L 160.600 200.200 172.515 200.306 L 184.430 200.412 184.315 196.706 L 184.200 193.000 172.490 192.894 C 162.940 192.807,160.741 192.888,160.572 193.329 M248.373 203.424 C 253.941 206.220,254.600 207.743,254.600 217.800 L 254.600 226.200 253.503 227.752 C 250.411 232.125,248.784 232.910,242.247 233.184 L 237.095 233.400 237.160 249.400 C 237.230 266.677,237.164 267.317,235.135 269.162 C 232.510 271.550,229.014 271.195,226.727 268.309 L 225.400 266.634 225.200 250.017 L 225.000 233.400 220.200 233.178 C 210.332 232.721,207.600 229.386,207.600 217.800 C 207.600 208.733,208.687 206.293,214.000 203.429 L 215.800 202.459 231.067 202.430 L 246.334 202.400 248.373 203.424 M219.200 217.794 L 219.200 221.600 231.215 221.600 L 243.230 221.600 243.115 217.900 L 243.000 214.200 231.100 214.094 L 219.200 213.988 219.200 217.794 M131.079 219.420 C 133.174 220.533,135.600 222.682,135.600 223.425 C 135.600 223.682,135.960 224.350,136.400 224.909 C 137.817 226.711,137.601 240.566,136.116 243.129 C 133.563 247.533,131.055 248.848,124.600 249.165 L 119.800 249.400 119.600 258.295 L 119.400 267.190 117.693 268.895 C 115.259 271.326,112.015 271.401,109.693 269.080 L 108.200 267.589 108.000 258.494 L 107.800 249.400 103.000 249.191 C 99.490 249.038,97.878 248.797,97.000 248.294 C 96.340 247.915,95.607 247.604,95.372 247.602 C 95.137 247.601,94.572 247.172,94.117 246.648 C 93.661 246.125,93.127 245.630,92.930 245.548 C 92.732 245.467,92.037 244.500,91.385 243.400 L 90.200 241.400 90.200 233.534 C 90.200 226.003,90.238 225.615,91.100 224.450 C 91.595 223.780,92.000 223.085,92.000 222.905 C 92.000 222.388,94.446 220.334,96.200 219.379 C 97.761 218.528,98.179 218.506,113.479 218.454 L 129.158 218.400 131.079 219.420 M101.787 232.163 C 101.639 233.352,101.642 235.062,101.794 235.963 L 102.070 237.600 113.835 237.600 L 125.600 237.600 125.600 233.800 L 125.600 230.000 113.829 230.000 L 102.058 230.000 101.787 232.163 " stroke="none" fill="#fbfbfb" fill-rule="evenodd"></path><path id="path2" d="M78.600 80.017 C 71.536 80.938,65.306 86.964,63.368 94.748 C 62.019 100.169,61.892 123.043,63.196 125.915 C 64.632 129.079,51.554 128.800,198.364 128.800 L 329.955 128.800 330.577 129.689 C 331.331 130.765,331.545 274.470,330.799 278.405 C 329.666 284.381,326.328 286.067,315.162 286.308 L 306.525 286.494 305.420 287.879 C 302.960 290.962,304.091 294.624,307.791 295.556 C 311.682 296.536,327.470 295.670,329.010 294.392 C 331.518 292.310,331.895 300.161,329.459 303.751 C 328.378 305.345,325.795 307.598,325.045 307.602 C 324.800 307.604,324.060 307.919,323.400 308.302 C 322.266 308.962,315.599 309.000,202.200 309.000 L 82.200 309.000 79.800 308.020 C 74.947 306.038,73.086 303.359,72.871 298.049 C 72.702 293.872,73.056 293.152,74.736 294.253 C 77.379 295.984,77.466 295.985,185.827 295.993 C 298.557 296.001,292.314 296.131,293.218 293.753 C 293.980 291.747,293.683 288.960,292.564 287.631 L 291.529 286.400 187.664 286.366 C 130.539 286.348,82.808 286.208,81.595 286.056 C 78.931 285.721,75.794 283.766,74.127 281.400 L 73.000 279.800 72.800 211.142 C 72.577 134.743,72.851 142.239,70.200 139.935 C 68.130 138.135,64.874 139.107,63.242 142.010 L 62.390 143.526 62.495 221.863 L 62.600 300.200 63.534 303.334 C 65.212 308.968,71.228 316.400,74.110 316.400 C 74.386 316.400,75.329 316.805,76.206 317.300 L 77.800 318.200 201.600 318.200 L 325.400 318.200 327.800 317.212 C 329.120 316.669,330.681 315.859,331.269 315.412 C 331.858 314.965,333.028 314.098,333.869 313.484 C 334.711 312.870,335.811 311.790,336.313 311.084 C 338.412 308.130,339.586 306.163,339.593 305.586 C 339.597 305.249,339.960 303.948,340.400 302.696 C 341.192 300.443,341.200 299.401,341.195 198.710 L 341.190 97.000 340.221 93.967 C 338.184 87.589,335.140 84.113,329.000 81.151 L 326.200 79.800 203.600 79.752 C 136.170 79.726,79.920 79.845,78.600 80.017 M329.803 82.190 C 333.323 84.017,336.894 87.167,337.424 88.914 C 337.571 89.401,338.008 90.160,338.394 90.600 C 338.780 91.040,339.215 92.184,339.359 93.142 C 339.504 94.100,339.888 95.396,340.211 96.022 C 341.285 98.097,341.078 298.636,340.000 301.704 C 339.560 302.956,339.200 304.410,339.200 304.936 C 339.200 305.462,338.840 306.350,338.400 306.909 C 337.960 307.469,337.600 308.044,337.600 308.187 C 337.600 308.778,334.747 312.126,333.327 313.201 C 332.487 313.837,331.350 314.699,330.800 315.116 C 330.250 315.534,329.260 316.008,328.600 316.169 C 327.940 316.330,327.066 316.763,326.658 317.131 C 325.968 317.753,317.257 317.800,202.058 317.800 L 78.200 317.800 76.615 316.900 C 75.744 316.405,74.782 316.000,74.479 316.000 C 73.232 316.000,66.664 309.892,66.172 308.275 C 66.025 307.794,65.630 307.086,65.293 306.703 C 63.438 304.590,63.453 305.243,63.320 221.810 C 63.181 135.326,63.002 141.556,65.668 140.226 C 67.241 139.441,67.957 139.440,69.519 140.220 C 72.181 141.548,72.000 136.475,72.002 209.561 C 72.004 247.750,72.160 276.747,72.371 278.036 C 72.841 280.908,75.527 284.800,77.037 284.800 C 77.208 284.800,77.780 285.205,78.306 285.700 L 79.264 286.600 185.202 286.706 L 291.139 286.812 292.212 288.087 C 293.342 289.430,293.525 293.035,292.515 294.045 C 291.455 295.105,284.239 295.181,185.400 295.173 C 82.102 295.165,76.634 295.097,75.213 293.812 C 72.952 291.765,71.725 293.696,72.253 298.471 C 72.774 303.188,75.928 308.000,78.497 308.000 C 78.959 308.000,79.685 308.315,80.110 308.700 C 81.413 309.879,321.491 309.979,323.487 308.802 C 324.234 308.361,325.132 308.000,325.481 308.000 C 326.797 308.000,330.716 303.282,331.174 301.146 C 332.376 295.542,331.133 291.688,328.804 293.797 C 327.736 294.763,321.414 295.302,313.169 295.130 L 306.938 295.000 305.669 293.731 C 304.015 292.077,304.006 290.607,305.634 288.555 L 306.869 287.000 315.534 286.789 L 324.200 286.577 326.400 285.247 C 329.112 283.606,330.569 281.599,331.266 278.542 C 332.066 275.034,331.663 129.640,330.851 128.661 C 330.342 128.049,320.617 128.000,198.601 128.000 C 126.165 128.000,66.377 127.895,65.738 127.768 C 63.208 127.262,62.965 125.540,63.251 110.136 C 63.519 95.656,63.903 92.257,65.500 90.233 C 65.995 89.605,66.400 88.886,66.400 88.635 C 66.400 88.384,66.715 87.879,67.100 87.513 C 67.485 87.147,68.340 86.211,69.000 85.432 C 69.660 84.654,70.390 84.013,70.622 84.008 C 70.855 84.004,71.655 83.550,72.400 83.000 C 73.145 82.450,74.007 82.000,74.315 82.000 C 74.622 82.000,75.331 81.640,75.891 81.200 C 76.903 80.404,77.514 80.400,201.630 80.400 L 326.352 80.400 329.803 82.190 M81.000 88.779 C 78.608 89.203,74.400 91.973,74.400 93.123 C 74.400 93.360,74.035 93.811,73.588 94.124 C 71.947 95.272,71.092 117.435,72.629 118.971 C 73.401 119.744,329.387 119.956,330.826 119.186 C 331.662 118.739,331.983 101.219,331.239 96.697 C 330.918 94.746,328.665 91.544,326.983 90.649 C 326.552 90.420,325.660 89.865,325.000 89.416 L 323.800 88.600 203.200 88.547 C 136.870 88.519,81.880 88.623,81.000 88.779 M325.162 90.325 C 328.113 91.793,330.272 94.416,330.794 97.171 C 331.605 101.445,331.318 118.309,330.426 118.786 C 329.479 119.293,74.075 119.362,73.277 118.856 C 72.371 118.282,72.772 95.656,73.707 94.599 C 76.286 91.683,77.155 90.918,78.777 90.139 L 80.600 89.263 201.800 89.257 L 323.000 89.251 325.162 90.325 M250.931 99.807 C 246.327 104.612,252.779 111.555,257.774 107.169 C 260.349 104.908,260.237 101.368,257.525 99.284 C 254.977 97.325,253.172 97.469,250.931 99.807 M273.679 99.235 L 272.000 100.469 272.000 103.214 C 272.000 109.053,278.573 110.749,281.205 105.590 C 283.740 100.620,278.179 95.925,273.679 99.235 M296.514 98.837 C 292.058 101.691,293.970 108.400,299.240 108.400 C 304.224 108.400,306.095 102.021,301.998 98.998 C 300.329 97.767,298.279 97.707,296.514 98.837 M97.052 99.193 C 93.912 101.201,93.564 104.069,96.147 106.653 L 97.895 108.400 106.247 108.394 L 114.600 108.388 116.139 107.086 C 117.712 105.755,118.202 103.327,117.405 100.816 C 116.628 98.367,100.369 97.071,97.052 99.193 M138.122 99.182 C 134.625 101.315,134.625 105.485,138.122 107.618 C 139.277 108.322,140.177 108.397,147.506 108.399 L 155.612 108.400 157.099 107.037 C 159.748 104.609,159.202 100.280,156.083 98.977 C 153.746 98.000,139.799 98.160,138.122 99.182 M256.666 99.300 C 258.952 101.220,259.200 101.596,259.200 103.136 C 259.200 108.034,253.534 109.788,250.799 105.737 C 249.150 103.293,249.251 102.412,251.432 100.232 C 253.545 98.118,254.959 97.867,256.666 99.300 M278.400 99.000 C 278.674 99.330,279.140 99.600,279.435 99.600 C 281.248 99.600,281.509 105.016,279.782 106.818 C 278.155 108.517,275.262 108.523,273.569 106.831 C 271.962 105.224,271.791 100.612,273.316 100.032 C 273.820 99.840,274.473 99.395,274.765 99.042 C 275.437 98.232,277.741 98.206,278.400 99.000 M301.473 99.424 C 305.557 102.195,303.948 108.000,299.096 108.000 C 295.430 108.000,293.177 102.116,296.015 99.955 C 296.557 99.543,297.180 99.033,297.400 98.823 C 298.134 98.121,299.948 98.389,301.473 99.424 M115.221 99.654 C 116.895 100.155,117.189 100.745,117.188 103.600 C 117.187 107.436,115.752 108.000,105.981 108.000 L 98.256 108.000 96.528 106.144 C 94.164 103.606,94.805 100.048,97.729 99.478 C 99.757 99.084,113.788 99.224,115.221 99.654 M156.400 99.765 L 157.800 100.269 157.917 103.111 C 158.024 105.718,157.959 105.994,157.125 106.440 C 156.625 106.707,155.975 107.168,155.680 107.463 C 154.677 108.466,140.237 108.212,138.538 107.161 C 135.395 105.219,135.314 100.780,138.400 99.634 C 139.956 99.057,154.731 99.164,156.400 99.765 M110.700 146.032 C 110.315 146.256,110.000 146.642,110.000 146.888 C 110.000 147.135,109.728 147.638,109.395 148.005 C 108.597 148.887,108.627 147.579,108.719 177.953 L 108.800 204.505 110.547 206.253 C 113.256 208.962,115.650 208.606,117.817 205.174 L 118.800 203.616 118.800 176.752 L 118.800 149.888 117.906 148.098 C 116.731 145.745,113.019 144.681,110.700 146.032 M170.200 145.869 C 167.540 146.403,166.116 164.504,168.439 168.262 C 170.422 171.472,174.161 171.590,176.500 168.517 L 177.600 167.071 177.600 158.014 L 177.600 148.958 176.365 147.279 C 175.098 145.555,173.542 145.199,170.200 145.869 M228.971 145.873 C 228.467 145.973,227.800 146.740,227.271 147.829 C 225.983 150.480,225.901 186.653,227.177 189.155 C 228.855 192.443,231.806 192.956,234.515 190.429 L 236.200 188.858 236.318 169.729 C 236.474 144.666,236.393 144.404,228.971 145.873 M287.721 146.005 C 284.344 147.365,284.472 158.011,287.885 159.566 C 292.863 161.834,296.419 156.821,295.041 149.478 C 294.451 146.333,290.987 144.689,287.721 146.005 M115.484 146.237 C 117.981 146.736,118.004 147.021,118.002 176.854 C 118.000 205.822,118.087 204.669,115.760 206.668 C 114.045 208.141,112.728 207.896,110.839 205.750 L 109.211 203.900 109.106 176.876 C 109.025 156.284,109.115 149.655,109.484 149.026 C 109.751 148.572,110.094 147.930,110.246 147.600 C 110.999 145.975,112.380 145.616,115.484 146.237 M175.478 146.700 C 175.617 147.085,176.061 147.878,176.465 148.462 C 177.123 149.412,177.200 150.430,177.200 158.155 L 177.200 166.786 175.469 168.593 C 173.027 171.141,170.698 170.925,169.143 168.006 C 168.482 166.767,168.403 165.660,168.430 158.006 C 168.471 146.475,168.609 146.138,173.313 146.040 C 174.794 146.009,175.282 146.158,175.478 146.700 M233.767 146.243 C 234.115 146.376,234.400 146.663,234.400 146.880 C 234.400 147.096,234.760 147.731,235.200 148.291 C 235.975 149.276,236.000 149.914,236.000 168.707 L 236.000 188.105 234.253 189.853 C 232.224 191.882,230.732 192.126,229.086 190.700 C 227.238 189.098,227.198 188.622,227.230 168.474 C 227.263 147.953,227.361 146.873,229.232 146.350 C 230.503 145.995,232.970 145.937,233.767 146.243 M293.445 147.494 C 294.653 149.078,295.194 152.786,294.644 155.697 C 293.959 159.314,289.774 160.878,287.403 158.403 C 285.225 156.130,285.678 146.999,288.000 146.356 C 290.709 145.607,292.251 145.929,293.445 147.494 M274.323 172.118 C 269.501 173.165,267.233 177.627,267.213 186.108 C 267.188 196.626,270.375 200.481,279.200 200.610 C 281.510 200.643,283.805 200.802,284.300 200.962 L 285.200 201.254 285.200 233.378 C 285.200 269.464,285.040 267.499,288.108 269.159 C 290.245 270.315,291.232 270.148,293.419 268.259 L 295.000 266.892 295.200 233.946 L 295.400 201.000 300.200 200.740 C 310.404 200.189,312.800 197.396,312.800 186.052 L 312.800 179.097 311.596 176.993 C 310.117 174.408,308.184 172.883,305.468 172.160 C 302.965 171.494,277.357 171.459,274.323 172.118 M308.299 173.966 C 311.786 176.770,312.400 178.607,312.400 186.231 C 312.400 192.268,312.327 192.967,311.600 193.891 C 311.160 194.450,310.800 195.194,310.800 195.544 C 310.800 196.326,308.089 198.799,307.227 198.802 C 306.882 198.804,306.084 199.074,305.454 199.402 C 304.646 199.824,303.048 200.000,300.034 200.000 C 297.243 200.000,295.593 200.167,295.280 200.480 C 294.915 200.845,294.800 208.708,294.800 233.426 C 294.800 269.915,295.043 267.000,291.865 268.687 C 289.886 269.738,286.889 268.696,286.351 266.772 C 286.202 266.237,286.062 251.275,286.040 233.523 L 286.000 201.245 285.111 200.623 C 284.450 200.160,283.194 200.000,280.211 200.000 C 270.837 199.999,268.102 196.896,268.053 186.200 C 268.019 179.043,268.565 176.928,271.041 174.622 C 273.437 172.392,272.384 172.499,291.200 172.555 L 306.600 172.600 308.299 173.966 M277.481 181.511 C 276.531 182.560,276.491 189.234,277.429 190.171 C 277.951 190.694,279.417 190.817,286.129 190.900 C 300.944 191.084,302.631 191.040,303.339 190.451 C 304.306 189.648,304.306 182.352,303.339 181.549 C 302.152 180.563,278.371 180.527,277.481 181.511 M292.600 181.603 C 304.047 181.614,303.277 181.298,303.287 185.995 C 303.297 190.736,304.336 190.387,290.180 190.394 C 276.303 190.401,277.198 190.675,277.205 186.420 C 277.215 181.404,277.434 181.114,281.000 181.421 C 282.100 181.516,287.320 181.597,292.600 181.603 M157.043 182.623 C 151.652 184.119,149.640 187.881,149.616 196.508 C 149.586 207.504,152.721 211.200,162.076 211.200 C 168.300 211.200,167.600 207.688,167.601 238.914 C 167.603 269.028,167.442 267.340,170.496 269.202 C 172.215 270.250,173.110 270.207,174.903 268.989 C 177.737 267.063,177.600 268.592,177.600 238.900 C 177.600 218.636,177.716 212.044,178.080 211.680 C 178.389 211.371,179.989 211.199,182.580 211.198 C 192.095 211.194,195.290 207.724,195.536 197.130 C 195.726 188.931,193.523 184.401,188.542 182.750 C 186.237 181.985,159.725 181.879,157.043 182.623 M187.427 183.231 C 190.389 183.769,192.348 185.504,194.032 189.083 C 195.684 192.595,195.780 200.606,194.209 203.800 C 193.668 204.900,193.219 205.990,193.213 206.222 C 193.148 208.390,187.293 210.800,182.088 210.800 C 176.654 210.800,177.200 207.669,177.200 238.845 L 177.200 265.632 176.315 266.829 C 174.070 269.867,169.909 269.811,168.835 266.728 C 168.538 265.878,168.400 256.984,168.400 238.789 C 168.400 207.677,169.074 211.065,162.840 210.863 C 160.508 210.787,158.420 210.580,158.200 210.402 C 157.980 210.224,157.062 209.881,156.160 209.640 C 151.805 208.476,150.209 204.978,150.213 196.600 C 150.217 187.837,152.243 184.094,157.454 183.220 C 160.427 182.722,184.669 182.730,187.427 183.231 M160.101 192.100 C 159.119 193.335,159.093 200.280,160.068 200.962 C 161.547 201.999,184.392 201.914,185.338 200.869 C 186.345 199.756,186.292 193.188,185.269 192.262 C 184.309 191.394,160.782 191.242,160.101 192.100 M184.720 192.480 C 185.445 193.205,185.367 200.163,184.627 200.778 C 183.838 201.432,160.985 201.052,160.165 200.371 C 159.645 199.939,159.686 194.237,160.221 192.500 C 160.439 191.793,184.014 191.774,184.720 192.480 M215.211 204.035 C 210.093 205.851,208.400 209.304,208.400 217.926 C 208.400 228.677,211.713 232.400,221.279 232.400 C 226.865 232.400,226.400 230.828,226.400 249.718 C 226.400 267.761,226.398 267.747,229.400 269.200 C 231.522 270.227,231.907 270.208,233.703 268.989 C 236.446 267.125,236.400 267.456,236.400 249.500 C 236.400 230.741,235.930 232.400,241.244 232.400 C 251.102 232.400,254.000 229.086,254.000 217.815 C 254.000 208.491,252.716 205.966,246.966 203.988 C 243.518 202.802,218.582 202.839,215.211 204.035 M246.437 204.539 C 249.132 205.174,251.379 206.866,252.178 208.862 C 252.502 209.670,252.954 210.448,253.183 210.590 C 253.871 211.015,253.737 224.588,253.039 225.167 C 252.731 225.423,252.357 226.115,252.209 226.705 C 251.439 229.774,247.247 231.600,240.974 231.600 C 235.545 231.600,236.000 229.981,236.000 249.278 C 236.000 265.528,235.994 265.640,235.115 266.829 C 233.494 269.021,231.421 269.648,229.296 268.588 C 227.281 267.583,227.200 266.847,227.200 249.522 L 227.200 233.564 226.218 232.582 C 225.317 231.681,224.929 231.600,221.518 231.595 C 214.793 231.587,210.920 229.621,209.937 225.716 C 209.698 224.765,209.344 223.889,209.151 223.770 C 208.958 223.650,208.800 220.964,208.800 217.800 C 208.800 214.636,208.958 211.950,209.151 211.830 C 209.344 211.711,209.698 210.835,209.937 209.884 C 210.535 207.510,213.036 205.224,215.759 204.563 C 218.723 203.844,243.401 203.825,246.437 204.539 M218.835 213.358 C 218.580 213.665,218.261 215.729,218.126 217.945 L 217.881 221.974 218.966 222.387 C 220.624 223.017,242.728 222.926,244.000 222.283 C 244.949 221.804,245.006 221.583,245.114 217.907 L 245.229 214.035 244.034 213.418 C 242.345 212.544,219.555 212.490,218.835 213.358 M243.600 214.000 C 244.713 215.113,244.788 221.017,243.700 221.843 C 242.780 222.541,220.404 222.644,219.118 221.956 C 218.319 221.528,218.253 214.808,219.036 213.542 C 219.549 212.712,242.744 213.144,243.600 214.000 M97.023 220.140 C 92.134 222.266,90.800 225.168,90.800 233.670 C 90.800 244.752,93.654 248.000,103.392 248.000 C 109.073 248.000,108.800 247.489,108.800 258.136 L 108.800 266.494 110.327 268.021 C 112.998 270.692,115.679 270.407,117.845 267.220 C 118.775 265.851,118.800 265.602,118.800 257.569 C 118.800 247.510,118.531 248.002,124.031 247.996 C 133.634 247.985,136.572 244.608,136.559 233.600 C 136.548 224.911,135.124 221.965,130.000 220.031 C 126.573 218.737,100.045 218.825,97.023 220.140 M129.313 220.431 C 134.425 222.138,136.008 225.317,135.987 233.828 C 135.960 244.449,133.505 247.169,123.929 247.190 C 117.815 247.204,118.000 246.883,118.000 257.474 C 118.000 267.173,117.280 269.200,113.833 269.200 C 110.074 269.200,109.241 267.073,109.109 257.141 C 108.970 246.654,109.444 247.347,102.269 247.137 L 96.980 246.982 95.286 245.621 C 89.847 241.250,89.365 227.367,94.477 222.341 C 97.359 219.508,122.434 218.133,129.313 220.431 M100.855 230.100 C 100.631 230.815,100.392 232.831,100.324 234.581 C 100.156 238.901,99.470 238.686,113.669 238.769 C 128.045 238.854,127.200 239.164,127.200 233.813 C 127.200 228.458,128.144 228.800,113.342 228.800 L 101.262 228.800 100.855 230.100 M125.920 229.680 C 126.223 229.983,126.400 231.502,126.400 233.800 C 126.400 236.098,126.223 237.617,125.920 237.920 C 125.395 238.445,111.279 238.536,104.600 238.058 L 101.000 237.800 101.010 234.200 C 101.026 228.664,99.687 229.200,113.507 229.200 C 122.255 229.200,125.568 229.328,125.920 229.680 " stroke="none" fill="#747474" fill-rule="evenodd"></path><path id="path3" d="M78.705 79.883 C 79.202 79.979,79.922 79.975,80.305 79.875 C 80.687 79.775,80.280 79.696,79.400 79.701 C 78.520 79.705,78.207 79.787,78.705 79.883 M331.844 82.642 C 332.700 83.215,333.805 84.056,334.300 84.512 C 334.795 84.967,335.200 85.222,335.200 85.079 C 335.200 84.697,331.201 81.600,330.708 81.600 C 330.477 81.600,330.988 82.069,331.844 82.642 M68.378 85.100 L 67.000 86.600 68.500 85.222 C 69.896 83.938,70.184 83.600,69.878 83.600 C 69.812 83.600,69.137 84.275,68.378 85.100 M336.834 87.047 C 337.365 87.733,337.880 88.223,337.979 88.135 C 338.077 88.047,337.643 87.486,337.013 86.888 L 335.869 85.800 336.834 87.047 M79.600 89.800 C 78.322 90.530,78.596 90.534,80.600 89.812 C 81.480 89.495,81.840 89.234,81.400 89.232 C 80.960 89.230,80.150 89.486,79.600 89.800 M321.633 89.344 C 321.725 89.423,322.340 89.608,323.000 89.756 C 323.876 89.952,324.038 89.915,323.600 89.618 C 323.060 89.253,321.232 88.998,321.633 89.344 M253.700 97.876 C 254.085 97.976,254.715 97.976,255.100 97.876 C 255.485 97.775,255.170 97.693,254.400 97.693 C 253.630 97.693,253.315 97.775,253.700 97.876 M298.500 97.876 C 298.885 97.976,299.515 97.976,299.900 97.876 C 300.285 97.775,299.970 97.693,299.200 97.693 C 298.430 97.693,298.115 97.775,298.500 97.876 M102.300 98.298 C 104.555 98.370,108.245 98.370,110.500 98.298 C 112.755 98.227,110.910 98.169,106.400 98.169 C 101.890 98.169,100.045 98.227,102.300 98.298 M138.165 98.756 C 136.443 99.806,135.192 101.516,135.241 102.754 C 135.278 103.691,135.314 103.663,135.594 102.484 C 135.927 101.079,136.887 99.816,138.196 99.063 C 138.692 98.777,142.065 98.517,147.000 98.384 L 155.000 98.167 147.200 98.085 C 140.177 98.011,139.277 98.078,138.165 98.756 M273.384 99.111 C 272.038 100.317,272.381 100.211,274.154 98.872 C 274.789 98.392,275.149 98.005,274.954 98.011 C 274.759 98.017,274.053 98.512,273.384 99.111 M330.799 108.481 C 330.690 114.135,330.738 118.623,330.907 118.453 C 331.076 118.284,331.166 113.658,331.107 108.173 L 330.999 98.200 330.799 108.481 M341.394 149.600 C 341.394 177.870,341.442 189.435,341.500 175.300 C 341.558 161.165,341.558 138.035,341.500 123.900 C 341.442 109.765,341.394 121.330,341.394 149.600 M271.720 103.600 C 271.720 104.810,271.795 105.305,271.887 104.700 C 271.978 104.095,271.978 103.105,271.887 102.500 C 271.795 101.895,271.720 102.390,271.720 103.600 M248.893 103.200 C 248.893 103.970,248.975 104.285,249.076 103.900 C 249.176 103.515,249.176 102.885,249.076 102.500 C 248.975 102.115,248.893 102.430,248.893 103.200 M293.600 103.376 C 293.600 104.133,293.738 104.838,293.907 104.943 C 294.076 105.047,294.148 104.428,294.065 103.566 C 293.881 101.632,293.600 101.518,293.600 103.376 M304.101 103.400 C 304.105 104.280,304.187 104.593,304.283 104.095 C 304.379 103.598,304.375 102.878,304.275 102.495 C 304.175 102.113,304.096 102.520,304.101 103.400 M259.232 105.259 C 259.214 105.621,258.564 106.476,257.786 107.159 C 257.008 107.841,256.523 108.400,256.708 108.400 C 257.363 108.400,259.686 105.660,259.476 105.135 C 259.325 104.756,259.254 104.792,259.232 105.259 M94.800 105.725 C 94.800 105.794,95.385 106.379,96.100 107.025 L 97.400 108.200 96.225 106.900 C 95.130 105.688,94.800 105.416,94.800 105.725 M250.457 106.778 C 251.013 107.536,251.723 108.237,252.034 108.336 C 252.354 108.438,252.250 108.186,251.795 107.758 C 251.352 107.341,250.642 106.640,250.217 106.200 C 249.792 105.760,249.900 106.020,250.457 106.778 M137.287 107.300 C 137.906 107.905,138.635 108.395,138.906 108.388 C 139.178 108.381,139.040 108.177,138.600 107.933 C 138.160 107.690,137.431 107.200,136.981 106.845 C 136.530 106.490,136.668 106.695,137.287 107.300 M295.688 107.413 C 296.286 108.043,296.847 108.477,296.935 108.379 C 297.023 108.280,296.533 107.765,295.847 107.234 L 294.600 106.269 295.688 107.413 M253.700 108.676 C 254.085 108.776,254.715 108.776,255.100 108.676 C 255.485 108.575,255.170 108.493,254.400 108.493 C 253.630 108.493,253.315 108.575,253.700 108.676 M276.305 108.683 C 276.802 108.779,277.522 108.775,277.905 108.675 C 278.287 108.575,277.880 108.496,277.000 108.501 C 276.120 108.505,275.807 108.587,276.305 108.683 M298.100 108.676 C 298.485 108.776,299.115 108.776,299.500 108.676 C 299.885 108.575,299.570 108.493,298.800 108.493 C 298.030 108.493,297.715 108.575,298.100 108.676 M137.732 119.100 C 173.115 119.156,230.895 119.156,266.132 119.100 C 301.370 119.044,272.420 118.998,201.800 118.998 C 131.180 118.998,102.350 119.044,137.732 119.100 M66.138 128.894 C 66.392 129.056,125.854 129.191,198.276 129.194 C 303.173 129.199,330.019 129.302,330.276 129.700 C 330.454 129.975,330.691 163.320,330.802 203.800 L 331.004 277.400 331.102 203.944 C 331.195 134.493,331.162 130.442,330.500 129.640 L 329.800 128.791 197.738 128.696 C 125.104 128.643,65.884 128.732,66.138 128.894 M65.144 139.624 L 64.200 140.447 65.400 139.745 C 66.979 138.820,67.003 138.800,66.511 138.800 C 66.279 138.800,65.664 139.171,65.144 139.624 M62.955 141.812 C 62.590 142.369,62.364 142.898,62.453 142.987 C 62.542 143.076,62.918 142.620,63.289 141.974 C 64.114 140.536,63.869 140.417,62.955 141.812 M176.000 146.800 C 176.470 147.460,176.944 148.000,177.054 148.000 C 177.164 148.000,176.870 147.460,176.400 146.800 C 175.930 146.140,175.456 145.600,175.346 145.600 C 175.236 145.600,175.530 146.140,176.000 146.800 M286.155 147.012 C 285.790 147.569,285.564 148.098,285.653 148.187 C 285.742 148.276,286.118 147.820,286.489 147.174 C 287.314 145.736,287.069 145.617,286.155 147.012 M226.808 147.984 C 225.132 151.270,225.696 190.000,227.421 190.000 C 227.531 190.000,227.346 189.469,227.010 188.820 C 225.936 186.742,226.113 150.131,227.208 147.984 C 227.653 147.113,227.926 146.400,227.816 146.400 C 227.706 146.400,227.253 147.113,226.808 147.984 M117.390 147.101 C 118.581 149.406,118.794 149.726,118.789 149.200 C 118.785 148.870,118.411 148.150,117.956 147.600 C 117.502 147.050,117.247 146.826,117.390 147.101 M285.052 149.700 C 284.733 150.892,284.784 155.219,285.128 156.085 C 285.278 156.462,285.400 154.977,285.400 152.785 C 285.400 148.413,285.399 148.405,285.052 149.700 M167.370 158.200 C 167.371 163.040,167.429 164.965,167.499 162.478 C 167.569 159.991,167.569 156.031,167.498 153.678 C 167.428 151.325,167.370 153.360,167.370 158.200 M177.770 158.000 C 177.770 162.730,177.828 164.665,177.898 162.300 C 177.969 159.935,177.969 156.065,177.898 153.700 C 177.828 151.335,177.770 153.270,177.770 158.000 M108.589 177.800 C 108.589 192.320,108.639 198.202,108.700 190.871 C 108.761 183.540,108.761 171.660,108.700 164.471 C 108.639 157.282,108.589 163.280,108.589 177.800 M293.375 158.900 L 292.200 160.200 293.500 159.025 C 294.215 158.379,294.800 157.794,294.800 157.725 C 294.800 157.416,294.470 157.688,293.375 158.900 M169.544 169.976 C 170.064 170.429,170.679 170.800,170.911 170.800 C 171.403 170.800,171.379 170.780,169.800 169.855 L 168.600 169.153 169.544 169.976 M275.512 171.528 C 274.877 171.779,293.933 171.740,300.800 171.476 C 302.450 171.413,297.590 171.337,290.000 171.309 C 282.410 171.280,275.890 171.379,275.512 171.528 M270.185 174.500 L 268.200 176.600 270.300 174.615 C 272.251 172.771,272.583 172.400,272.285 172.400 C 272.222 172.400,271.277 173.345,270.185 174.500 M310.574 175.400 C 311.967 177.452,312.252 177.695,311.477 176.171 C 311.134 175.495,310.549 174.690,310.178 174.382 C 309.807 174.074,309.985 174.532,310.574 175.400 M312.963 186.000 C 312.963 189.630,313.023 191.115,313.098 189.300 C 313.172 187.485,313.172 184.515,313.098 182.700 C 313.023 180.885,312.963 182.370,312.963 186.000 M266.959 186.000 C 266.959 189.190,267.021 190.495,267.097 188.900 C 267.173 187.305,267.173 184.695,267.097 183.100 C 267.021 181.505,266.959 182.810,266.959 186.000 M279.505 181.483 C 280.002 181.579,280.722 181.575,281.105 181.475 C 281.487 181.375,281.080 181.296,280.200 181.301 C 279.320 181.305,279.007 181.387,279.505 181.483 M166.125 181.899 C 169.824 181.966,175.764 181.965,179.325 181.899 C 182.886 181.833,179.860 181.779,172.600 181.779 C 165.340 181.779,162.426 181.833,166.125 181.899 M302.078 182.100 C 302.424 182.375,302.804 182.870,302.922 183.200 C 303.066 183.603,303.147 183.518,303.168 182.943 C 303.186 182.471,302.915 181.976,302.567 181.843 C 301.573 181.461,301.392 181.556,302.078 182.100 M190.200 183.535 C 190.860 183.937,191.985 184.933,192.700 185.747 C 193.415 186.562,194.000 187.066,194.000 186.869 C 194.000 186.328,190.111 182.800,189.517 182.801 C 189.233 182.802,189.540 183.132,190.200 183.535 M277.276 186.020 C 277.174 190.620,276.801 190.417,285.180 190.314 L 292.200 190.228 285.000 190.014 L 277.800 189.800 277.576 186.200 L 277.351 182.600 277.276 186.020 M234.575 190.500 L 233.400 191.800 234.700 190.625 C 235.415 189.979,236.000 189.394,236.000 189.325 C 236.000 189.016,235.670 189.288,234.575 190.500 M149.358 196.600 C 149.358 199.680,149.421 200.887,149.497 199.282 C 149.573 197.678,149.573 195.158,149.496 193.682 C 149.419 192.207,149.357 193.520,149.358 196.600 M173.360 192.390 C 184.049 192.591,184.533 192.634,184.832 193.400 C 185.047 193.953,185.152 194.008,185.172 193.580 C 185.240 192.083,184.555 191.997,173.220 192.090 L 162.200 192.181 173.360 192.390 M268.030 194.400 C 268.028 194.976,269.157 197.266,269.186 196.746 C 269.194 196.606,268.937 195.886,268.616 195.146 C 268.294 194.406,268.031 194.070,268.030 194.400 M159.693 198.800 C 159.693 199.570,159.775 199.885,159.876 199.500 C 159.976 199.115,159.976 198.485,159.876 198.100 C 159.775 197.715,159.693 198.030,159.693 198.800 M184.571 200.389 C 184.356 200.604,181.305 200.833,177.791 200.900 L 171.400 201.022 177.851 201.111 C 183.174 201.184,184.389 201.095,184.800 200.600 C 185.352 199.934,185.182 199.778,184.571 200.389 M284.894 233.476 C 284.842 251.338,284.935 266.036,285.100 266.138 C 285.372 266.306,285.369 242.860,285.093 212.600 C 285.035 206.220,284.945 215.614,284.894 233.476 M149.630 203.200 C 149.628 203.776,150.757 206.066,150.786 205.546 C 150.794 205.406,150.537 204.686,150.216 203.946 C 149.894 203.206,149.631 202.870,149.630 203.200 M224.074 203.099 C 227.745 203.165,233.865 203.165,237.674 203.099 C 241.483 203.034,238.480 202.980,231.000 202.980 C 223.520 202.979,220.403 203.033,224.074 203.099 M194.181 205.237 C 193.829 205.918,193.612 206.545,193.699 206.632 C 193.786 206.719,194.156 206.162,194.522 205.395 C 195.344 203.670,195.059 203.538,194.181 205.237 M108.800 204.655 C 108.800 204.868,109.475 205.663,110.300 206.422 L 111.800 207.800 110.400 206.204 C 109.630 205.327,108.955 204.532,108.900 204.438 C 108.845 204.344,108.800 204.441,108.800 204.655 M248.833 204.500 C 248.925 204.555,249.540 205.050,250.200 205.600 L 251.400 206.600 250.430 205.500 C 249.897 204.895,249.282 204.400,249.064 204.400 C 248.845 204.400,248.742 204.445,248.833 204.500 M211.178 206.300 L 209.800 207.800 211.300 206.422 C 212.125 205.663,212.800 204.988,212.800 204.922 C 212.800 204.616,212.462 204.904,211.178 206.300 M188.000 210.600 C 187.450 210.914,187.180 211.172,187.400 211.172 C 187.620 211.172,188.250 210.914,188.800 210.600 C 189.350 210.286,189.620 210.028,189.400 210.028 C 189.180 210.028,188.550 210.286,188.000 210.600 M160.300 211.495 C 161.455 211.576,163.345 211.576,164.500 211.495 C 165.655 211.414,164.710 211.348,162.400 211.348 C 160.090 211.348,159.145 211.414,160.300 211.495 M178.080 211.680 C 177.714 212.046,177.623 218.501,177.696 238.780 L 177.791 265.400 177.996 238.600 L 178.200 211.800 182.600 211.579 L 187.000 211.358 182.780 211.279 C 179.935 211.226,178.404 211.356,178.080 211.680 M254.164 217.800 C 254.163 221.540,254.223 223.124,254.297 221.320 C 254.371 219.515,254.372 216.455,254.298 214.520 C 254.225 212.584,254.164 214.060,254.164 217.800 M167.200 238.938 C 167.410 267.588,167.369 267.000,169.263 268.602 L 170.200 269.394 169.350 268.397 C 167.571 266.311,167.600 266.793,167.600 238.850 C 167.600 224.108,167.465 211.964,167.300 211.862 C 167.135 211.760,167.090 223.944,167.200 238.938 M208.160 217.800 C 208.161 221.100,208.222 222.397,208.298 220.682 C 208.373 218.967,208.372 216.267,208.297 214.682 C 208.221 213.097,208.159 214.500,208.160 217.800 M219.061 213.500 C 218.959 213.665,222.413 213.754,226.738 213.698 C 241.555 213.505,242.991 213.370,231.124 213.285 C 224.592 213.238,219.164 213.335,219.061 213.500 M244.142 218.200 C 244.141 220.180,244.208 221.040,244.292 220.112 C 244.376 219.184,244.377 217.564,244.295 216.512 C 244.212 215.460,244.143 216.220,244.142 218.200 M218.454 219.076 C 218.425 220.438,218.535 221.636,218.700 221.738 C 218.865 221.840,218.947 221.086,218.883 220.062 C 218.684 216.888,218.511 216.491,218.454 219.076 M106.300 219.099 C 110.315 219.165,116.885 219.165,120.900 219.099 C 124.915 219.034,121.630 218.981,113.600 218.981 C 105.570 218.981,102.285 219.034,106.300 219.099 M97.200 219.800 C 96.650 220.114,96.380 220.372,96.600 220.372 C 96.820 220.372,97.450 220.114,98.000 219.800 C 98.550 219.486,98.820 219.228,98.600 219.228 C 98.380 219.228,97.750 219.486,97.200 219.800 M132.400 220.925 C 132.400 220.994,132.985 221.579,133.700 222.225 L 135.000 223.400 133.825 222.100 C 132.730 220.888,132.400 220.616,132.400 220.925 M231.400 222.000 L 219.400 222.218 231.276 222.309 C 238.862 222.367,243.242 222.255,243.400 222.000 C 243.536 221.780,243.592 221.641,243.524 221.691 C 243.456 221.741,238.000 221.880,231.400 222.000 M91.578 225.098 C 90.674 226.901,90.687 227.079,91.620 225.683 C 92.104 224.959,92.417 224.283,92.315 224.182 C 92.213 224.080,91.881 224.492,91.578 225.098 M136.493 228.400 C 136.493 229.170,136.575 229.485,136.676 229.100 C 136.776 228.715,136.776 228.085,136.676 227.700 C 136.575 227.315,136.493 227.630,136.493 228.400 M90.560 233.800 C 90.561 237.100,90.622 238.397,90.698 236.682 C 90.773 234.967,90.772 232.267,90.697 230.682 C 90.621 229.097,90.559 230.500,90.560 233.800 M211.200 229.400 C 211.946 230.170,212.647 230.800,212.757 230.800 C 212.867 230.800,212.346 230.170,211.600 229.400 C 210.854 228.630,210.153 228.000,210.043 228.000 C 209.933 228.000,210.454 228.630,211.200 229.400 M111.700 229.499 C 114.285 229.568,118.515 229.568,121.100 229.499 C 123.685 229.429,121.570 229.372,116.400 229.372 C 111.230 229.372,109.115 229.429,111.700 229.499 M100.860 234.476 C 100.827 236.168,100.935 237.637,101.100 237.739 C 101.265 237.842,101.349 236.907,101.287 235.663 C 101.092 231.756,100.922 231.285,100.860 234.476 M221.178 232.699 C 226.478 232.886,226.000 231.204,226.000 249.669 C 226.000 265.461,226.197 268.000,227.421 268.000 C 227.531 268.000,227.346 267.469,227.010 266.820 C 226.493 265.820,226.400 263.204,226.400 249.682 C 226.400 230.742,226.891 232.357,221.169 232.483 L 217.400 232.566 221.178 232.699 M236.749 233.100 C 236.266 233.716,236.275 233.742,236.822 233.315 C 237.183 233.035,239.117 232.775,241.422 232.699 L 245.400 232.567 241.349 232.484 C 237.903 232.413,237.216 232.505,236.749 233.100 M136.493 238.800 C 136.493 239.570,136.575 239.885,136.676 239.500 C 136.776 239.115,136.776 238.485,136.676 238.100 C 136.575 237.715,136.493 238.030,136.493 238.800 M111.700 238.299 C 114.285 238.368,118.515 238.368,121.100 238.299 C 123.685 238.229,121.570 238.172,116.400 238.172 C 111.230 238.172,109.115 238.229,111.700 238.299 M133.178 245.500 L 131.800 247.000 133.300 245.622 C 134.696 244.338,134.984 244.000,134.678 244.000 C 134.612 244.000,133.937 244.675,133.178 245.500 M98.536 248.094 C 98.791 248.256,100.899 248.391,103.220 248.394 C 105.541 248.397,107.657 248.579,107.921 248.799 C 108.233 249.057,108.226 248.997,107.901 248.628 C 107.536 248.213,106.139 248.024,102.736 247.929 C 100.171 247.858,98.281 247.932,98.536 248.094 M124.350 247.898 C 120.540 248.013,120.023 248.118,119.350 248.913 C 118.603 249.797,118.603 249.798,119.431 249.100 C 120.100 248.537,121.042 248.399,124.231 248.394 C 126.414 248.391,128.470 248.213,128.800 248.000 C 129.130 247.787,129.220 247.648,129.000 247.691 C 128.780 247.734,126.688 247.828,124.350 247.898 M108.485 257.953 L 108.400 266.505 110.147 268.253 C 111.108 269.214,112.143 269.999,112.447 269.999 C 112.751 269.998,112.460 269.663,111.800 269.256 C 109.007 267.530,109.022 267.585,108.785 258.059 L 108.569 249.400 108.485 257.953 M235.289 267.517 L 234.379 269.000 235.389 267.878 C 235.945 267.260,236.400 266.585,236.400 266.378 C 236.400 265.790,236.265 265.928,235.289 267.517 M287.600 269.164 C 288.150 269.614,288.780 269.983,289.000 269.985 C 289.428 269.988,288.705 269.434,287.400 268.760 C 286.869 268.485,286.936 268.621,287.600 269.164 M327.775 283.300 L 326.600 284.600 327.900 283.425 C 329.112 282.330,329.384 282.000,329.075 282.000 C 329.006 282.000,328.421 282.585,327.775 283.300 M135.100 286.300 C 163.755 286.357,210.645 286.357,239.300 286.300 C 267.955 286.243,244.510 286.197,187.200 286.197 C 129.890 286.197,106.445 286.243,135.100 286.300 M310.480 286.298 C 312.394 286.371,315.634 286.371,317.680 286.298 C 319.726 286.226,318.160 286.166,314.200 286.165 C 310.240 286.165,308.566 286.224,310.480 286.298 M304.827 288.171 C 304.325 288.706,304.009 289.381,304.126 289.671 C 304.289 290.082,304.344 290.071,304.368 289.626 C 304.386 289.310,304.791 288.635,305.270 288.126 C 305.748 287.617,306.049 287.200,305.939 287.200 C 305.829 287.200,305.329 287.637,304.827 288.171 M293.709 291.200 C 293.709 292.190,293.787 292.595,293.882 292.100 C 293.978 291.605,293.978 290.795,293.882 290.300 C 293.787 289.805,293.709 290.210,293.709 291.200 M81.023 296.053 C 82.621 296.396,288.821 296.415,289.685 296.072 C 290.062 295.922,243.002 295.800,185.108 295.800 C 127.213 295.800,80.375 295.914,81.023 296.053 M330.914 297.400 C 330.917 298.500,330.995 298.903,331.087 298.295 C 331.179 297.686,331.177 296.786,331.082 296.295 C 330.987 295.803,330.911 296.300,330.914 297.400 M312.118 296.298 C 313.833 296.373,316.533 296.372,318.118 296.297 C 319.703 296.221,318.300 296.159,315.000 296.160 C 311.700 296.161,310.403 296.222,312.118 296.298 M76.087 305.805 C 76.904 306.660,77.638 307.279,77.717 307.180 C 77.797 307.081,77.128 306.381,76.231 305.625 L 74.600 304.250 76.087 305.805 M142.900 309.100 C 175.625 309.156,229.175 309.156,261.900 309.100 C 294.625 309.044,267.850 308.997,202.400 308.997 C 136.950 308.997,110.175 309.044,142.900 309.100 M336.323 311.100 C 335.618 311.921,335.090 312.800,335.301 312.800 C 335.383 312.800,335.849 312.260,336.337 311.600 C 337.301 310.296,337.292 309.972,336.323 311.100 M331.322 315.429 L 330.200 316.458 331.500 315.554 C 332.215 315.057,332.800 314.593,332.800 314.525 C 332.800 314.209,332.358 314.480,331.322 315.429 M141.932 318.700 C 175.005 318.756,229.005 318.756,261.932 318.700 C 294.860 318.644,267.800 318.597,201.800 318.597 C 135.800 318.597,108.860 318.644,141.932 318.700 " stroke="none" fill="#7c7c7c" fill-rule="evenodd"></path><path id="path4" d="M81.556 78.577 C 81.458 78.676,80.122 78.951,78.588 79.189 C 75.823 79.617,70.800 81.705,70.800 82.425 C 70.800 82.631,70.534 82.800,70.209 82.800 C 69.884 82.800,69.324 83.250,68.963 83.800 C 68.603 84.350,68.059 84.800,67.754 84.800 C 67.449 84.800,67.200 84.971,67.200 85.179 C 67.200 85.388,66.750 86.044,66.200 86.638 C 65.650 87.231,65.200 87.901,65.200 88.127 C 65.200 88.352,64.902 88.866,64.539 89.268 C 62.122 91.939,61.553 96.496,61.685 112.159 L 61.800 125.800 62.947 127.300 C 63.579 128.125,64.266 128.800,64.476 128.800 C 64.686 128.800,65.127 129.070,65.457 129.400 C 65.988 129.931,81.253 130.000,198.021 130.000 L 329.985 130.000 330.205 130.900 C 330.886 133.685,330.192 279.410,329.493 280.200 C 329.104 280.640,328.231 281.675,327.552 282.500 C 326.873 283.325,326.059 284.000,325.743 284.000 C 325.427 284.000,324.462 284.360,323.600 284.800 C 322.190 285.519,321.242 285.600,314.209 285.600 L 306.386 285.600 304.993 287.034 C 302.161 289.951,302.972 294.020,306.847 296.335 C 309.106 297.685,320.131 297.606,325.779 296.200 C 330.467 295.034,330.540 295.076,330.179 298.735 C 329.956 300.999,328.980 303.273,327.708 304.496 C 326.200 305.946,324.470 306.971,323.072 307.241 C 320.892 307.664,82.716 307.665,80.536 307.243 C 76.329 306.428,72.336 299.955,73.444 295.748 C 73.689 294.817,74.173 294.884,77.800 296.352 C 79.767 297.149,288.711 297.575,290.464 296.787 C 293.151 295.578,294.193 294.366,294.914 291.609 C 295.246 290.336,293.405 286.622,292.160 286.055 C 291.423 285.719,263.781 285.596,186.481 285.586 C 83.859 285.573,81.769 285.558,80.200 284.800 C 79.320 284.375,78.407 284.021,78.172 284.014 C 77.589 283.995,75.200 281.828,75.200 281.318 C 75.200 281.093,74.795 280.393,74.300 279.764 L 73.400 278.620 73.293 209.985 L 73.187 141.349 71.581 139.781 C 69.137 137.395,65.966 137.446,63.499 139.913 L 61.800 141.612 61.800 221.906 C 61.800 297.132,61.843 302.276,62.488 303.400 C 62.867 304.060,63.363 305.344,63.591 306.253 C 63.819 307.163,64.274 308.130,64.603 308.402 C 64.931 308.675,65.200 309.133,65.200 309.420 C 65.200 310.031,69.944 315.200,70.505 315.200 C 70.714 315.200,71.419 315.650,72.073 316.200 C 72.727 316.750,73.548 317.200,73.899 317.200 C 74.250 317.200,74.855 317.487,75.243 317.839 C 76.710 319.166,82.311 319.222,204.200 319.111 L 326.200 319.000 328.600 317.885 C 331.146 316.702,331.247 316.645,333.039 315.400 C 334.700 314.246,337.570 311.194,338.288 309.820 C 338.627 309.170,339.150 308.392,339.452 308.091 C 339.753 307.790,340.000 307.238,340.000 306.866 C 340.000 306.493,340.405 305.471,340.900 304.594 L 341.800 303.000 341.800 198.600 C 341.800 100.630,341.758 94.126,341.113 93.000 C 340.734 92.340,340.145 91.170,339.802 90.400 C 338.948 88.483,338.237 87.302,337.445 86.488 C 337.078 86.109,336.279 85.260,335.670 84.600 C 334.396 83.218,331.569 81.200,330.907 81.200 C 330.660 81.200,330.157 80.900,329.791 80.534 C 327.841 78.583,332.084 78.651,202.568 78.520 C 136.110 78.452,81.655 78.478,81.556 78.577 M329.694 81.101 C 332.392 82.405,338.000 87.193,338.000 88.195 C 338.000 88.468,338.329 89.121,338.731 89.646 C 339.133 90.171,339.898 91.950,340.431 93.600 L 341.400 96.600 341.276 199.000 L 341.151 301.400 340.136 304.400 C 339.578 306.050,338.869 307.684,338.561 308.031 C 338.252 308.379,337.995 308.829,337.989 309.031 C 337.947 310.418,330.850 316.800,329.350 316.800 C 329.061 316.800,328.054 317.205,327.112 317.700 L 325.400 318.600 202.000 318.600 L 78.600 318.600 76.649 317.700 C 75.576 317.205,74.460 316.800,74.170 316.800 C 73.879 316.800,73.156 316.350,72.562 315.800 C 71.969 315.250,71.306 314.800,71.090 314.800 C 70.380 314.800,66.512 310.463,65.289 308.295 C 62.388 303.156,62.612 310.103,62.498 221.649 L 62.396 142.299 64.145 140.549 C 66.561 138.134,68.463 138.084,70.915 140.371 L 72.600 141.942 72.800 210.671 L 73.000 279.400 74.127 280.995 C 75.626 283.119,76.311 283.720,78.633 284.956 L 80.594 286.000 185.808 286.000 C 302.734 286.000,292.232 285.742,293.442 288.639 C 294.795 291.878,293.838 294.504,290.904 295.602 C 288.792 296.392,287.725 296.400,185.916 296.400 C 75.991 296.400,78.698 296.446,74.898 294.528 C 73.158 293.651,72.997 293.925,73.018 297.735 C 73.042 302.311,75.763 306.651,79.107 307.449 C 79.708 307.593,80.453 307.910,80.761 308.155 C 81.170 308.479,113.964 308.629,201.161 308.707 L 321.000 308.813 323.400 307.936 C 328.088 306.221,330.413 303.265,330.710 298.643 C 330.943 295.009,330.426 293.710,329.086 294.565 C 326.826 296.006,312.237 296.975,308.179 295.953 C 304.042 294.911,302.558 290.614,305.294 287.600 L 306.566 286.200 315.183 286.000 C 325.074 285.770,325.834 285.541,328.969 281.842 L 330.600 279.919 330.705 205.343 C 330.778 153.915,330.680 130.524,330.391 129.983 C 329.976 129.208,328.631 129.200,198.399 129.200 C 51.729 129.200,64.943 129.464,63.194 126.500 C 62.172 124.768,61.960 98.214,62.944 95.114 C 63.243 94.171,63.700 92.635,63.960 91.700 C 64.220 90.765,64.593 90.000,64.789 90.000 C 64.985 90.000,65.272 89.595,65.427 89.100 C 66.363 86.099,72.596 81.201,77.000 80.005 C 77.660 79.825,134.180 79.706,202.600 79.739 L 327.000 79.800 329.694 81.101 M79.800 90.066 C 77.204 90.966,75.836 92.040,74.108 94.533 L 73.000 96.130 73.000 107.365 L 73.000 118.600 201.800 118.600 L 330.600 118.600 330.720 109.000 C 330.855 98.308,330.671 95.731,329.678 94.397 C 328.073 92.241,326.147 90.829,323.722 90.034 L 321.183 89.200 201.692 89.217 L 82.200 89.233 79.800 90.066 M323.923 90.845 C 324.955 91.090,326.070 91.594,326.400 91.965 C 326.730 92.335,327.315 92.760,327.700 92.907 C 328.085 93.054,328.400 93.394,328.400 93.662 C 328.400 93.929,328.801 94.575,329.291 95.097 C 330.234 96.101,330.920 111.936,330.222 116.594 L 329.951 118.400 201.800 118.400 L 73.649 118.400 73.386 116.645 C 72.687 111.982,73.354 96.630,74.300 95.615 C 74.795 95.084,75.200 94.323,75.200 93.925 C 75.200 93.526,75.380 93.200,75.600 93.200 C 75.820 93.200,76.403 92.795,76.894 92.300 C 77.386 91.805,78.511 91.199,79.394 90.952 C 81.681 90.315,321.243 90.210,323.923 90.845 M97.679 97.603 C 91.631 100.146,92.639 108.223,99.106 109.031 C 104.255 109.674,115.523 109.012,116.597 108.003 C 118.748 105.982,119.819 102.611,118.624 101.620 C 118.307 101.357,117.992 100.768,117.924 100.312 C 117.856 99.855,117.444 99.283,117.009 99.041 C 116.574 98.798,116.004 98.330,115.742 98.000 C 115.172 97.283,99.271 96.933,97.679 97.603 M138.569 97.569 C 134.616 99.254,133.348 104.468,136.198 107.318 L 137.597 108.717 143.493 109.011 C 154.961 109.585,157.416 109.081,159.155 105.800 C 160.553 103.160,159.787 100.391,157.098 98.374 C 155.711 97.334,140.656 96.680,138.569 97.569 M252.030 97.467 C 248.975 98.788,247.266 104.590,249.318 106.672 C 249.713 107.072,250.284 107.760,250.586 108.200 C 251.573 109.637,257.183 109.367,258.623 107.813 C 263.006 103.084,257.829 94.960,252.030 97.467 M274.481 97.471 C 270.681 98.995,269.815 105.602,273.087 108.100 C 276.441 110.659,282.399 108.478,282.814 104.539 C 283.001 102.764,282.756 101.213,282.200 100.657 C 281.870 100.327,281.600 99.904,281.600 99.717 C 281.600 99.315,280.390 98.237,279.258 97.631 C 278.440 97.193,275.426 97.092,274.481 97.471 M296.600 97.579 C 294.376 98.493,292.607 101.740,292.992 104.200 C 293.970 110.450,303.857 111.015,304.682 104.868 C 305.425 99.328,301.330 95.636,296.600 97.579 M256.600 98.353 C 260.129 100.560,260.910 104.575,258.300 107.102 C 253.785 111.472,246.336 105.813,249.831 100.668 C 251.781 97.798,254.322 96.929,256.600 98.353 M278.650 98.251 C 284.470 101.012,282.175 109.577,275.869 108.631 C 270.537 107.832,269.914 100.206,275.000 97.998 C 276.214 97.471,277.143 97.535,278.650 98.251 M301.930 98.696 C 304.830 100.577,305.259 105.241,302.724 107.341 C 298.092 111.178,291.527 105.998,294.443 100.808 C 296.164 97.747,299.162 96.901,301.930 98.696 M115.781 98.943 C 118.550 100.533,118.862 105.175,116.340 107.267 L 115.000 108.378 106.331 108.389 L 97.661 108.400 96.422 107.357 C 93.186 104.634,93.586 101.117,97.400 98.748 C 99.387 97.514,113.554 97.664,115.781 98.943 M156.303 98.791 C 159.272 100.138,159.886 104.594,157.440 107.040 L 156.080 108.400 147.294 108.400 C 138.990 108.400,138.450 108.354,137.446 107.565 C 134.203 105.014,134.533 100.971,138.165 98.756 C 140.035 97.616,153.771 97.641,156.303 98.791 M110.900 145.248 C 110.185 145.454,109.600 145.798,109.600 146.011 C 109.600 146.225,109.240 146.760,108.800 147.200 C 108.015 147.985,108.000 148.533,108.000 176.600 L 108.000 205.200 109.600 206.800 C 112.584 209.784,117.679 208.764,119.272 204.865 C 119.421 204.499,119.556 191.680,119.572 176.379 L 119.600 148.558 118.404 146.932 C 116.887 144.869,114.256 144.278,110.900 145.248 M169.700 145.248 C 168.985 145.454,168.400 145.848,168.400 146.123 C 168.400 146.397,168.040 146.930,167.600 147.307 C 166.839 147.959,166.800 148.485,166.803 158.096 L 166.807 168.200 168.229 169.700 C 170.341 171.928,174.341 171.956,176.672 169.759 L 178.200 168.318 178.321 158.459 L 178.442 148.600 177.224 146.951 C 175.659 144.832,173.125 144.258,169.700 145.248 M228.600 145.219 C 227.936 145.437,226.953 146.281,226.400 147.107 L 225.400 148.600 225.277 167.200 C 225.210 177.430,225.265 186.561,225.400 187.491 C 225.764 189.990,228.055 192.343,230.200 192.420 C 233.453 192.537,233.941 192.402,235.472 190.959 L 237.000 189.518 237.129 171.059 C 237.278 149.733,237.184 148.146,235.670 146.421 C 234.468 145.052,230.936 144.451,228.600 145.219 M287.400 145.219 C 283.739 146.423,282.649 155.303,285.721 158.896 C 287.519 160.998,294.000 161.456,294.000 159.481 C 294.000 159.212,294.360 158.768,294.800 158.493 C 296.253 157.585,295.991 148.182,294.465 146.473 C 293.194 145.050,289.766 144.441,287.400 145.219 M116.200 145.818 C 116.640 145.909,117.405 146.615,117.900 147.386 L 118.800 148.789 118.797 176.494 C 118.795 202.298,118.746 204.273,118.089 205.271 C 115.960 208.498,112.978 208.941,110.285 206.429 L 108.600 204.858 108.492 176.900 L 108.384 148.942 109.574 147.299 C 111.010 145.318,112.342 145.020,116.200 145.818 M175.880 146.085 C 177.951 147.725,179.110 163.368,177.454 167.332 C 175.912 171.024,171.469 172.067,168.958 169.327 C 167.194 167.400,167.117 166.840,167.270 156.978 L 167.400 148.600 168.530 147.122 C 169.932 145.290,174.129 144.697,175.880 146.085 M233.600 145.753 C 234.150 145.877,235.005 146.580,235.500 147.315 L 236.400 148.650 236.400 168.772 L 236.400 188.894 234.847 190.447 C 232.193 193.101,228.914 192.575,226.833 189.161 C 225.585 187.115,225.530 150.489,226.771 148.057 C 227.759 146.120,228.287 145.702,230.002 145.502 C 231.443 145.334,231.892 145.365,233.600 145.753 M292.800 145.829 C 294.466 146.300,295.200 148.472,295.200 152.931 L 295.200 157.212 293.887 158.645 C 292.548 160.106,290.029 160.571,287.613 159.804 C 286.293 159.385,284.800 155.771,284.800 152.993 C 284.800 146.679,287.440 144.315,292.800 145.829 M274.200 171.200 C 273.320 171.625,272.454 171.979,272.277 171.986 C 271.297 172.028,268.587 174.873,267.563 176.938 C 266.194 179.697,265.725 192.942,266.961 193.967 C 267.269 194.223,267.641 194.908,267.787 195.489 C 268.058 196.572,270.793 199.600,271.499 199.600 C 271.715 199.600,272.342 199.954,272.893 200.387 C 273.744 201.057,274.634 201.191,278.847 201.287 L 283.800 201.400 284.000 234.010 L 284.200 266.620 285.106 267.772 C 287.961 271.401,291.162 271.778,294.300 268.856 L 295.600 267.645 295.600 234.673 L 295.600 201.700 296.850 201.450 C 297.538 201.313,299.877 201.200,302.050 201.200 C 306.129 201.200,309.978 199.892,309.994 198.500 C 309.997 198.225,310.276 198.000,310.613 198.000 C 310.949 198.000,311.336 197.685,311.472 197.300 C 311.608 196.915,312.097 196.181,312.560 195.668 C 313.358 194.783,313.400 194.310,313.400 186.234 L 313.400 177.733 312.200 175.966 C 311.540 174.995,310.845 174.133,310.655 174.052 C 310.466 173.970,309.939 173.475,309.483 172.952 C 309.028 172.428,308.371 172.000,308.022 172.000 C 307.673 172.000,306.716 171.640,305.896 171.200 C 303.637 169.989,276.707 169.989,274.200 171.200 M305.297 171.825 C 308.160 172.567,310.387 174.234,311.906 176.772 C 313.515 179.460,313.607 192.392,312.036 195.000 C 309.372 199.424,306.619 200.800,300.432 200.800 C 297.643 200.800,295.993 200.967,295.680 201.280 C 295.315 201.645,295.200 209.500,295.200 234.191 C 295.200 269.956,295.380 267.482,292.653 269.167 C 290.838 270.289,288.979 270.231,287.369 269.003 C 284.661 266.938,284.800 268.868,284.800 233.381 C 284.800 204.483,284.737 201.261,284.167 201.043 C 283.819 200.909,281.674 200.800,279.400 200.800 C 270.375 200.800,266.800 196.620,266.800 186.069 C 266.800 177.798,269.092 173.403,274.200 171.880 C 277.212 170.982,301.875 170.938,305.297 171.825 M158.732 181.093 C 157.704 181.174,156.647 181.502,156.383 181.821 C 156.118 182.139,155.581 182.400,155.189 182.400 C 154.252 182.400,151.147 185.011,150.492 186.349 C 150.209 186.927,149.715 187.850,149.395 188.400 C 148.556 189.840,148.552 203.350,149.390 204.800 C 149.708 205.350,150.195 206.250,150.472 206.800 C 151.084 208.013,153.487 210.400,154.097 210.400 C 154.339 210.400,154.885 210.715,155.309 211.100 C 155.934 211.666,157.085 211.838,161.341 212.000 L 166.600 212.200 166.800 239.926 L 167.000 267.652 168.511 268.997 C 171.069 271.272,173.940 271.341,176.312 269.184 C 178.431 267.256,178.400 267.707,178.400 238.974 L 178.400 212.000 183.265 212.000 C 189.545 212.000,191.604 210.972,194.885 206.200 L 195.985 204.600 195.993 196.871 C 196.001 187.628,194.309 183.573,190.004 182.522 C 189.452 182.387,188.881 182.094,188.735 181.871 C 188.154 180.982,167.017 180.434,158.732 181.093 M187.778 182.394 C 193.768 184.107,195.600 187.478,195.600 196.789 C 195.600 207.833,192.790 211.078,182.800 211.572 L 178.200 211.800 178.000 239.000 C 177.811 264.636,177.757 266.263,177.059 267.293 C 175.232 269.986,172.028 270.727,169.743 268.984 C 167.298 267.119,167.417 268.521,167.200 239.000 L 167.000 211.800 162.200 211.558 C 152.167 211.051,149.400 207.861,149.400 196.800 C 149.400 187.337,151.165 184.128,157.344 182.360 C 161.249 181.242,183.840 181.267,187.778 182.394 M277.771 182.132 C 277.659 182.424,277.619 184.269,277.683 186.232 L 277.800 189.800 289.361 190.123 C 303.881 190.529,303.154 190.742,303.029 186.112 C 302.952 183.304,302.802 182.590,302.191 182.144 C 301.112 181.355,278.073 181.343,277.771 182.132 M301.773 183.000 C 301.892 183.440,301.992 185.105,301.995 186.700 L 302.000 189.600 290.000 189.600 L 278.000 189.600 278.000 185.762 L 278.000 181.924 289.779 182.062 C 301.160 182.195,301.565 182.227,301.773 183.000 M160.350 192.660 C 160.140 192.913,160.021 194.803,160.084 196.860 L 160.200 200.600 172.152 200.706 C 181.079 200.785,184.252 200.689,184.689 200.326 C 185.369 199.762,185.295 193.530,184.600 192.845 C 183.996 192.249,160.837 192.072,160.350 192.660 M184.315 196.706 L 184.430 200.412 172.515 200.306 L 160.600 200.200 160.482 197.035 C 160.417 195.295,160.458 193.627,160.572 193.329 C 160.741 192.888,162.940 192.807,172.490 192.894 L 184.200 193.000 184.315 196.706 M214.000 203.429 C 208.687 206.293,207.600 208.733,207.600 217.800 C 207.600 229.386,210.332 232.721,220.200 233.178 L 225.000 233.400 225.200 250.017 L 225.400 266.634 226.727 268.309 C 229.014 271.195,232.510 271.550,235.135 269.162 C 237.164 267.317,237.230 266.677,237.160 249.400 L 237.095 233.400 242.247 233.184 C 248.784 232.910,250.411 232.125,253.503 227.752 L 254.600 226.200 254.600 217.800 C 254.600 207.743,253.941 206.220,248.373 203.424 L 246.334 202.400 231.067 202.430 L 215.800 202.459 214.000 203.429 M247.600 203.795 C 250.199 204.896,252.010 206.606,253.282 209.161 C 254.950 212.511,254.986 222.884,253.341 226.361 C 252.332 228.495,249.921 231.197,249.022 231.202 C 248.790 231.204,248.060 231.504,247.400 231.869 C 246.560 232.334,244.880 232.586,241.800 232.709 C 235.816 232.949,236.400 231.060,236.400 250.160 C 236.400 268.292,236.502 267.530,233.853 269.167 C 232.025 270.297,230.179 270.232,228.537 268.979 C 225.965 267.017,226.000 267.287,226.000 249.669 C 226.000 231.166,226.548 232.953,220.800 232.707 C 211.344 232.303,208.404 229.031,208.104 218.577 C 207.834 209.161,209.535 205.832,215.786 203.542 C 218.841 202.424,244.851 202.630,247.600 203.795 M218.971 214.132 C 218.859 214.424,218.819 216.269,218.883 218.232 L 219.000 221.800 230.600 221.912 C 245.291 222.054,244.000 222.424,244.000 218.072 C 244.000 215.874,243.820 214.380,243.520 214.080 C 242.787 213.347,219.253 213.396,218.971 214.132 M243.115 217.900 L 243.230 221.600 231.215 221.600 L 219.200 221.600 219.200 217.794 L 219.200 213.988 231.100 214.094 L 243.000 214.200 243.115 217.900 M96.200 219.379 C 94.446 220.334,92.000 222.388,92.000 222.905 C 92.000 223.085,91.595 223.780,91.100 224.450 C 90.238 225.615,90.200 226.003,90.200 233.534 L 90.200 241.400 91.385 243.400 C 92.037 244.500,92.732 245.467,92.930 245.548 C 93.127 245.630,93.661 246.125,94.117 246.648 C 94.572 247.172,95.137 247.601,95.372 247.602 C 95.607 247.604,96.340 247.915,97.000 248.294 C 97.878 248.797,99.490 249.038,103.000 249.191 L 107.800 249.400 108.000 258.494 L 108.200 267.589 109.693 269.080 C 112.015 271.401,115.259 271.326,117.693 268.895 L 119.400 267.190 119.600 258.295 L 119.800 249.400 124.600 249.165 C 131.055 248.848,133.563 247.533,136.116 243.129 C 137.601 240.566,137.817 226.711,136.400 224.909 C 135.960 224.350,135.600 223.682,135.600 223.425 C 135.600 222.682,133.174 220.533,131.079 219.420 L 129.158 218.400 113.479 218.454 C 98.179 218.506,97.761 218.528,96.200 219.379 M130.086 219.804 C 135.408 221.966,136.800 224.840,136.800 233.665 C 136.799 244.662,133.562 248.400,124.037 248.400 C 118.535 248.400,118.800 247.920,118.800 257.882 C 118.800 266.963,118.635 267.695,116.262 269.161 C 113.992 270.565,112.192 270.297,110.147 268.253 L 108.400 266.505 108.400 257.933 C 108.400 247.729,108.751 248.400,103.420 248.400 C 93.659 248.399,90.600 244.908,90.600 233.767 C 90.600 220.062,92.473 218.840,113.508 218.816 L 127.616 218.800 130.086 219.804 M101.592 229.810 C 101.341 230.112,101.216 231.844,101.284 234.060 L 101.400 237.800 113.800 237.800 L 126.200 237.800 126.315 233.893 C 126.400 230.979,126.298 229.945,125.915 229.823 C 124.393 229.341,101.991 229.329,101.592 229.810 M125.600 233.800 L 125.600 237.600 113.835 237.600 L 102.070 237.600 101.794 235.963 C 101.642 235.062,101.639 233.352,101.787 232.163 L 102.058 230.000 113.829 230.000 L 125.600 230.000 125.600 233.800 " stroke="none" fill="#a9a9a9" fill-rule="evenodd"></path></g></svg>